<?xml version="1.0"?><svg width="424" height="347" xmlns="http://www.w3.org/2000/svg">

 <g>
  <title>Layer 1</title>
  <path fill="#000000" fill-rule="evenodd" stroke="#000000" stroke-width="0px" id="path16" d="m133.5,19.5l6,-11.5l0.5,0.5q0.5,0.5 0.75,1.5q0.25,1 2.75,1.75q2.5,0.75 10.5,1.25q8,0.5 9.5,0.75q1.5,0.25 2.25,1.75q0.75,1.5 1.5,2.75l0.75,1.25l-2.5,-0.5q-2.5,-0.5 -3,-1q-0.5,-0.5 -9,0q-8.5,0.5 -12.5,0.25q-4,-0.25 -5.75,4.75q-1.75,5 -3.25,8.5q-1.5,3.5 -1.25,5.25q0.25,1.75 7.75,5.75q7.5,4 15,7.25l7.5,3.25l-0.75,-5.5q-0.75,-5.5 -3,-10.75l-2.25,-5.25l2,0.5q2,0.5 3.5,1.5q1.5,1 8.5,5q7,4 9,5.5q2,1.5 4.5,3q2.5,1.5 4,1.5l1.5,0l0.75,-1.25q0.75,-1.25 5.25,-9.75q4.5,-8.5 6,-11.5q1.5,-3 3.75,-7.75l2.25,-4.75l1,-0.25q1,-0.25 0.5,1.75q-0.5,2 9,2.75q9.5,0.75 11,1.75l1.5,1l-8.5,1q-8.5,1 -12,1.5q-3.5,0.5 -4.25,1.75q-0.75,1.25 -3.25,7.25q-2.5,6 -5,12q-2.5,6 -2.25,7.75q0.25,1.75 4.75,4.25q4.5,2.5 11.5,6.5q7,4 10.25,7.75q3.25,3.75 4.75,6.25q1.5,2.5 3.5,8.5q2,6 2.5,8.5q0.5,2.5 0,15l-0.5,12.5l3.5,4q3.5,4 5.5,7q2,3 9.5,10q7.5,7 11.75,10.75q4.25,3.75 8.25,6.25q4,2.5 6.5,4.5q2.5,2 6.5,4.5q4,2.5 6,4q2,1.5 6,4q4,2.5 5.5,3.5q1.5,1 7.5,4.5q6,3.5 8,5q2,1.5 4,2.5l2,1l3.5,-0.5q3.5,-0.5 14,-4q10.5,-3.5 10.75,-3.25l0.25,0.25l-0.25,1.25q-0.25,1.25 -9.25,5.75q-9,4.5 -15.5,7q-6.5,2.5 -14,5.5q-7.5,3 -8,3.5q-0.5,0.5 -6.5,3q-6,2.5 -14,6q-8,3.5 -15.5,6.5q-7.5,3 -13.5,5.5q-6,2.5 -8.5,3.5l-2.5,1l-0.75,1.25q-0.75,1.25 -2.75,5.75q-2,4.5 -6,11.5q-4,7 -6.25,9.75q-2.25,2.75 -3.5,3.5q-1.25,0.75 -2.75,2.75q-1.5,2 -4.25,4.75l-2.75,2.75l4.5,-0.5q4.5,-0.5 14,-2q9.5,-1.5 22,-1q12.5,0.5 18,2q5.5,1.5 10.5,2q5,0.5 9.5,-0.5q4.5,-1 9.5,-3.5q5,-2.5 15,-2q10,0.5 15.5,2q5.5,1.5 13.5,1q8,-0.5 13,-2q5,-1.5 10.5,-2.25l5.5,-0.75l0,14.5l0,14.5l-180,0l-180,0l-0.25,-9q-0.25,-9 0,-10.5l0.25,-1.5l2.5,-0.25q2.5,-0.25 5.5,-0.25l3,0l-0.25,-0.25q-0.25,-0.25 -3.75,-9.25q-3.5,-9 -6.5,-16q-3,-7 -3.5,-36.5l-0.5,-29.5l1.5,-2q1.5,-2 7,-8q5.5,-6 7.5,-9q2,-3 3.5,-5q1.5,-2 3.5,-5q2,-3 4,-5.5q2,-2.5 4,-5.5q2,-3 4,-5.5q2,-2.5 5.5,-8.5q3.5,-6 5,-8q1.5,-2 3.5,-5q2,-3 3,-4.5q1,-1.5 3.5,-5.5q2.5,-4 4,-6q1.5,-2 4,-6q2.5,-4 4.5,-6.5q2,-2.5 2.5,-4.5q0.5,-2 -1.75,-3.75l-2.25,-1.75l4.5,-0.5q4.5,-0.5 6.75,-3.25q2.25,-2.75 4.75,-6.75q2.5,-4 4.5,-7q2,-3 3.5,-4.5l1.5,-1.5l-0.5,4q-0.5,4 -2.25,9.5l-1.75,5.5l1.5,-0.75q1.5,-0.75 3.5,-2.25q2,-1.5 3.75,-3.75q1.75,-2.25 2.75,-4.75q1,-2.5 0.5,-10q-0.5,-7.5 -2.5,-12q-2,-4.5 -4.5,-8.5q-2.5,-4 -6.25,-8.25l-3.75,-4.25l2.5,0.5q2.5,0.5 10.5,5q8,4.5 9.5,5.5q1.5,1 5.5,2.5l4,1.5l1.25,-1.75q1.25,-1.75 7.25,-13.25zm-43.75,71q1.25,-3.5 2.75,-3.5l1.5,0l0.25,2.5q0.25,2.5 -2.75,10q-3,7.5 -7,16.5q-4,9 -6.5,15q-2.5,6 -6,14q-3.5,8 -5.5,12.5q-2,4.5 -3.25,7.5q-1.25,3 -3.75,2.5l-2.5,-0.5l0.75,1.5q0.75,1.5 1.25,2q0.5,0.5 0,3q-0.5,2.5 -4,10.5q-3.5,8 -5.5,12.5q-2,4.5 -8,17.5q-6,13 -7.5,16.5q-1.5,3.5 -1.75,5q-0.25,1.5 -5.75,1.5q-5.5,0 -5,-1.25q0.5,-1.25 2,-1.75l1.5,-0.5l2.75,-1.75q2.75,-1.75 7.75,-19.75q5,-18 7.5,-25q2.5,-7 6.5,-17.5q4,-10.5 8.5,-20.5q4.5,-10 5.5,-11.5q1,-1.5 7,-12.5q6,-11 7,-12.5q1,-1.5 5,-8.5q4,-7 5,-8.5q1,-1.5 2.25,-5zm-29.5,97.5l1.75,-6l1.25,0.5q1.25,0.5 1.75,3.5q0.5,3 0,9.5q-0.5,6.5 -2.5,14q-2,7.5 -4,10.5q-2,3 -6,7l-4,4l0.5,-3.5q0.5,-3.5 5,-18.5q4.5,-15 6.25,-21zm29.25,34.5q3.5,0 0.5,2.5l-3,2.5l-4,1q-4,1 -16,2.5l-12,1.5l0.5,-0.5q0.5,-0.5 15.5,-5q15,-4.5 18.5,-4.5zm-20,-55q1.5,0 13.5,4.5q12,4.5 18,8q6,3.5 9.25,6.25q3.25,2.75 8.75,8.75q5.5,6 5.75,7l0.25,1l-2.5,-0.75q-2.5,-0.75 -5.5,-2.25q-3,-1.5 -17,-9q-14,-7.5 -14.5,-8q-0.5,-0.5 -3.5,-2q-3,-1.5 -8,-4.5q-5,-3 -5.75,-3.75q-0.75,-0.75 -0.75,-2.75l0,-2l0.25,-0.25q0.25,-0.25 1.75,-0.25zm29.5,-71l1,0l0.75,1.25q0.75,1.25 3.5,10.5q2.75,9.25 2.5,10q-0.25,0.75 -0.25,1.25q0,0.5 -1.5,8.5q-1.5,8 -4,12q-2.5,4 -5.25,7.25q-2.75,3.25 -5.25,5.25q-2.5,2 -7,4.5q-4.5,2.5 -7,3.5q-2.5,1 -4.5,1l-2,0l0.75,-1.25q0.75,-1.25 4.25,-10.25q3.5,-9 9,-21q5.5,-12 9,-21q3.5,-9 4.25,-10.25q0.75,-1.25 1.75,-1.25zm20,119.75q4,-1.25 3.25,1.25q-0.75,2.5 -1.5,3.25q-0.75,0.75 -2.25,1.25q-1.5,0.5 -11.5,2l-10,1.5l3,-1.5q3,-1.5 9,-4l6,-2.5l4,-1.25zm-14.5,-129.75q1.5,0 8.5,3.5q7,3.5 10,5.5q3,2 6.25,4.75q3.25,2.75 4.75,4.75q1.5,2 2.25,3.25l0.75,1.25l-2,-0.5q-2,-0.5 -7,-3.5q-5,-3 -6.5,-4q-1.5,-1 -9.5,-5.5q-8,-4.5 -8.75,-5.25q-0.75,-0.75 -0.75,-2.25l0,-1.5l0.25,-0.25q0.25,-0.25 1.75,-0.25zm69,116q8.5,0 14.5,1q6,1 9,2.5q3,1.5 5,3q2,1.5 4,4q2,2.5 1.75,3.25q-0.25,0.75 0,1l0.25,0.25l-0.5,0.5q-0.5,0.5 -27.5,1q-27,0.5 -37.5,1.75l-10.5,1.25l0.75,-3q0.75,-3 2,-5.75q1.25,-2.75 6.25,-4.75q5,-2 8.5,-3q3.5,-1 9.5,-2q6,-1 14.5,-1zm-26.5,-62.25q6,-0.25 5.5,2.25q-0.5,2.5 -2.5,2.25l-2,-0.25l-3.5,-2q-3.5,-2 2.5,-2.25zm4,-42.25q0,-1 8.5,-0.5q8.5,0.5 7.5,3.75q-1,3.25 -3,3.25l-2,0l-5.5,-2.75q-5.5,-2.75 -5.5,-3.75zm10,44.5q1,0 8.5,3q7.5,3 9.5,4.5q2,1.5 5,3.5q3,2 7.25,5.75q4.25,3.75 6.75,8.25q2.5,4.5 2.75,6l0.25,1.5l-1.5,-0.75q-1.5,-0.75 -5.5,-3.25q-4,-2.5 -5.5,-3.5q-1.5,-1 -9.5,-5.5q-8,-4.5 -9.5,-5.5q-1.5,-1 -6.5,-4q-5,-3 -5.25,-3.25q-0.25,-0.25 0.25,-2.75l0.5,-2.5l0.75,-0.75q0.75,-0.75 1.75,-0.75zm12.25,-39.5q0.75,-2 3.25,-1.25q2.5,0.75 5.5,2.25q3,1.5 4.5,2.5q1.5,1 3.5,2.5q2,1.5 3.75,2.75q1.75,1.25 2,2.25q0.25,1 1.25,1q1,0 1.75,1.5q0.75,1.5 3.25,4.5q2.5,3 3.75,6l1.25,3l-2.25,-1q-2.25,-1 -4.5,-2.75q-2.25,-1.75 -6.75,-4.25q-4.5,-2.5 -12.5,-7q-8,-4.5 -8.75,-5.75q-0.75,-1.25 -0.25,-2.75l0.5,-1.5l0.75,-2zm51.75,24.25l1,-0.25l0.75,2.5q0.75,2.5 4.25,9.5q3.5,7 7.5,14.5q4,7.5 7.5,13.5q3.5,6 4.5,7.5q1,1.5 3,4.5q2,3 4,5.5q2,2.5 4,5.5q2,3 5.75,7.25q3.75,4.25 6.5,7q2.75,2.75 3,3.75l0.25,1l-7.5,2.25q-7.5,2.25 -10.5,3.25q-3,1 -10.5,3q-7.5,2 -23,1.75l-15.5,-0.25l0.75,-9q0.75,-9 -0.25,-16q-1,-7 -4,-13.5q-3,-6.5 -3.25,-6.75l-0.25,-0.25l1.75,-2.25q1.75,-2.25 3.75,-5.75q2,-3.5 3,-7.5q1,-4 1.75,-13.25q0.75,-9.25 3.75,-11.25q3,-2 5,-4q2,-2 3,-2.25zm67,64.25q6,0 12,2.25l6,2.25l0,1q0,1 -7,3.25q-7,2.25 -11,3.75q-4,1.5 -5.5,2q-1.5,0.5 -3.75,0.25l-2.25,-0.25l-0.5,-1.5q-0.5,-1.5 0,-5q0.5,-3.5 1.25,-4.75q0.75,-1.25 2.75,-2.25q2,-1 8,-1z"/>
 </g>
</svg>